<svg width="135" height="36" viewBox="0 0 135 36" fill="none" xmlns="http://www.w3.org/2000/svg">
<path d="M34.7143 2.57144H16.7283C8.19957 2.57144 1.28571 9.47905 1.28571 18H19.2717C27.8004 18 34.7143 11.0924 34.7143 2.57144Z" fill="#FE9A22"/>
<path d="M14.8163 33.4286L34.7143 33.4286C34.7143 25.6177 28.6564 19.2857 21.1837 19.2857L1.28572 19.2857C1.28572 27.0966 7.34358 33.4286 14.8163 33.4286Z" fill="#59DCE4"/>
<path d="M51.9428 23.04V9H47.8286V27H58.3714V23.04H51.9428Z" fill="black"/>
<path d="M69.2636 14.1429V15.3514C68.415 14.3743 67.155 13.7829 65.4322 13.7829C62.0636 13.7829 59.2865 16.74 59.2865 20.5714C59.2865 24.4029 62.0636 27.36 65.4322 27.36C67.155 27.36 68.415 26.7686 69.2636 25.7914V27H73.1208V14.1429H69.2636ZM66.2036 23.7086C64.4293 23.7086 63.1436 22.5 63.1436 20.5714C63.1436 18.6429 64.4293 17.4343 66.2036 17.4343C67.9779 17.4343 69.2636 18.6429 69.2636 20.5714C69.2636 22.5 67.9779 23.7086 66.2036 23.7086Z" fill="black"/>
<path d="M83.4848 13.7829C81.7877 13.7829 80.502 14.4 79.8077 15.3514V14.1429H75.9505V27H79.8077V19.98C79.8077 18.1543 80.7848 17.3314 82.1991 17.3314C83.4334 17.3314 84.4363 18.0771 84.4363 19.6714V27H88.2934V19.1057C88.2934 15.6343 86.082 13.7829 83.4848 13.7829Z" fill="black"/>
<path d="M100.276 9V15.3514C99.4279 14.3743 98.1679 13.7829 96.445 13.7829C93.0765 13.7829 90.2993 16.74 90.2993 20.5714C90.2993 24.4029 93.0765 27.36 96.445 27.36C98.1679 27.36 99.4279 26.7686 100.276 25.7914V27H104.134V9H100.276ZM97.2165 23.7086C95.4422 23.7086 94.1565 22.5 94.1565 20.5714C94.1565 18.6429 95.4422 17.4343 97.2165 17.4343C98.9907 17.4343 100.276 18.6429 100.276 20.5714C100.276 22.5 98.9907 23.7086 97.2165 23.7086Z" fill="black"/>
</svg>
